<?xml version="1.0" encoding="utf-8"?>
<!-- Generator: Adobe Illustrator 18.1.1, SVG Export Plug-In . SVG Version: 6.00 Build 0)  -->
<!DOCTYPE svg PUBLIC "-//W3C//DTD SVG 1.1//EN" "http://www.w3.org/Graphics/SVG/1.1/DTD/svg11.dtd">
<svg version="1.1" id="Layer_1" xmlns="http://www.w3.org/2000/svg" xmlns:xlink="http://www.w3.org/1999/xlink" x="0px" y="0px"
	 viewBox="0 0 160 80" enable-background="new 0 0 160 80" xml:space="preserve">
<g>
	<path fill="#ED2738" d="M16.2,70h3.9V53.1c0,0,0-0.1-0.1-0.1l0,0c-1.2,0.2-2.5,0.2-3.7,0l0,0c0,0-0.1,0-0.1,0.1V70z"/>
	<rect x="15.7" y="60.8" fill="#ED2738" width="5.1" height="9.2"/>
	<rect x="12.7" y="70" fill="#ED2738" width="10.9" height="1.7"/>
	<rect x="7.7" y="71.6" fill="#ED2738" width="21" height="1.7"/>
	<rect x="8.7" y="69.3" fill="#ED2738" width="2.2" height="2.4"/>
	<path fill="#ED2738" d="M157.8,76.1l0-0.9L42.4,75c-1.8,0-3.5-1.1-4.3-2.8c-0.1-0.2-0.2-0.5-0.3-0.7c-1.5-3-3.1-6.5-8.1-5.5
		c-2.5,0.5-3.5,2.8-3.5,3.3c0,0.3,0.2,0.5,0.5,0.5v-0.5L27,69c0.1,0.1,0.1,0.3,0.1,0.3c0-0.2,0.8-1.9,2.7-2.3c4.3-0.9,5.6,2,7.1,5
		c0.1,0.2,0.2,0.5,0.3,0.7c1,2,3,3.3,5.1,3.3L157.8,76.1z"/>
	<rect x="3.4" y="24.6" fill="#ED2738" width="29.5" height="2.9"/>
	<path fill="#ED2738" d="M4.8,16.8v29.9c0,1.5,0.7,2.9,1.8,3.8v0c7,5.5,16.3,5.5,23.3,0l0,0c1.1-0.9,1.8-2.3,1.8-3.8V16.8h2.2v31.7
		c0,1.6-0.8,3.1-2,4l-3.2,2.2c-6.4,4.4-14.5,4.4-20.9,0l-3.2-2.2c-1.2-0.8-2-2.3-2-4V16.8H4.8z"/>
	<rect x="25.5" y="68.8" fill="#ED2738" width="2.2" height="2.8"/>
</g>
<path id="XMLID_22_" fill="#162249" d="M6.6,25.6v10.6c0,6.3,5.1,11.4,11.4,11.4h0c6.3,0,11.4-5.1,11.4-11.4V25.6H6.6z"/>
<g id="XMLID_3_">
	<path id="XMLID_21_" fill="#162249" d="M29.4,25.9V14.4C29.4,8.1,24.3,3,18,3h0C11.8,3,6.6,8.1,6.6,14.4v11.5H29.4z"/>
	<path id="XMLID_20_" fill="#FFFFFF" d="M15.9,11.1v-0.2c0-0.3-0.2-0.5-0.5-0.5H7.3c-0.1,0.4-0.3,0.8-0.4,1.2h8.5
		C15.7,11.6,15.9,11.4,15.9,11.1z"/>
	<path id="XMLID_19_" fill="#FFFFFF" d="M15.9,14.9v-0.2c0-0.3-0.2-0.5-0.5-0.5H6.6c0,0,0,0.1,0,0.1v1h8.8
		C15.7,15.4,15.9,15.2,15.9,14.9z"/>
	<path id="XMLID_18_" fill="#FFFFFF" d="M15.9,18.7v-0.2c0-0.3-0.2-0.5-0.5-0.5H6.6v1.2h8.8C15.7,19.2,15.9,19,15.9,18.7z"/>
	<path id="XMLID_17_" fill="#FFFFFF" d="M15.9,22.5v-0.2c0-0.3-0.2-0.5-0.5-0.5H6.6V23h8.8C15.7,23,15.9,22.8,15.9,22.5z"/>
	<path id="XMLID_16_" fill="#FFFFFF" d="M20.1,10.9v0.2c0,0.3,0.2,0.5,0.5,0.5h8.5c-0.1-0.4-0.2-0.8-0.4-1.2h-8.1
		C20.3,10.4,20.1,10.7,20.1,10.9z"/>
	<path id="XMLID_15_" fill="#FFFFFF" d="M20.1,14.7v0.2c0,0.3,0.2,0.5,0.5,0.5h8.8v-1c0,0,0-0.1,0-0.1h-8.8
		C20.3,14.2,20.1,14.5,20.1,14.7z"/>
	<path id="XMLID_5_" fill="#FFFFFF" d="M20.1,18.5v0.2c0,0.3,0.2,0.5,0.5,0.5h8.8V18h-8.8C20.3,18,20.1,18.3,20.1,18.5z"/>
	<path id="XMLID_4_" fill="#FFFFFF" d="M20.1,22.3v0.2c0,0.3,0.2,0.5,0.5,0.5h8.8v-1.2h-8.8C20.3,21.8,20.1,22.1,20.1,22.3z"/>
</g>
<rect x="41.5" y="45.5" fill="#162249" width="116.6" height="18.4"/>
<g>
	<path fill="#162249" d="M73.9,10c0.8-0.1,1.4-0.2,2-0.3c0.5,0,1.1-0.1,1.7-0.1c0.6,0,1.2,0,1.9,0.1c0.7,0,1.4,0.1,2.2,0.3L73.9,42
		c-0.4,0.1-1,0.2-1.7,0.3c-0.7,0.1-1.5,0.1-2.3,0.1c-0.8,0-1.6-0.1-2.4-0.2c-0.8-0.1-1.3-0.2-1.6-0.2l-4.2-18.5L57.1,42
		c-0.3,0.1-0.8,0.1-1.5,0.2c-0.7,0.1-1.5,0.2-2.3,0.2c-0.8,0-1.6,0-2.2-0.1c-0.7-0.1-1.2-0.2-1.7-0.3l-7.6-31.9
		c0.8-0.1,1.6-0.3,2.4-0.3c0.8-0.1,1.5-0.1,2.1-0.1c0.6,0,1.2,0,1.8,0.1c0.6,0,1.3,0.1,2.1,0.3l3.7,20.4c0.7-3.3,1.5-6.7,2.2-10.3
		c0.7-3.6,1.5-7,2.2-10.2c0.5-0.1,1.1-0.2,1.8-0.2c0.7-0.1,1.3-0.1,2-0.1c0.6,0,1.2,0,1.8,0.1c0.6,0.1,1.2,0.2,1.6,0.2l4.7,20.7
		L73.9,10z"/>
	<path fill="#162249" d="M83.3,35.3c0.3,0.1,0.7,0.1,1.2,0.2c0.5,0.1,1.1,0.1,1.7,0.1c0.4,0,0.7,0,1.2-0.1s0.8-0.2,1.1-0.4
		c0.3-0.2,0.6-0.6,0.9-1c0.2-0.4,0.4-1.1,0.4-1.9V16.9h-4.9c-0.3-1.3-0.4-2.4-0.4-3.5c0-1,0.1-2.2,0.4-3.4h12.8v23.3
		c0,1.7-0.3,3.2-0.8,4.4s-1.3,2.2-2.2,2.9c-0.9,0.7-2,1.3-3.2,1.6c-1.2,0.3-2.6,0.5-4,0.5c-0.9,0-1.7-0.1-2.6-0.2
		c-0.9-0.1-1.6-0.3-2.3-0.5c0-0.2-0.1-0.5-0.1-0.7c0-0.2,0-0.5,0-0.8C82.4,38.7,82.7,37,83.3,35.3z"/>
	<path fill="#162249" d="M103.8,10c0.6-0.1,1.3-0.2,2-0.2c0.7-0.1,1.4-0.1,2-0.1c0.6,0,1.2,0,1.9,0.1c0.7,0.1,1.3,0.2,1.9,0.2
		l6.4,16.6l6.6-16.6c0.6-0.1,1.2-0.2,1.8-0.2c0.6-0.1,1.2-0.1,1.8-0.1c0.6,0,1.3,0,1.9,0.1c0.7,0.1,1.3,0.2,1.9,0.2l1.5,31.9
		c-0.5,0.1-1,0.2-1.6,0.3c-0.6,0.1-1.3,0.1-2.3,0.1c-1,0-2.3-0.1-3.7-0.4l-0.6-18.5l-4.9,12.2c-0.5,0.1-1.1,0.2-1.6,0.2
		c-0.5,0.1-1,0.1-1.5,0.1s-0.9,0-1.4-0.1c-0.5,0-1-0.1-1.5-0.2l-4.4-12L109.7,42c-1.3,0.3-2.4,0.4-3.6,0.4c-1,0-2.3-0.1-3.6-0.4
		L103.8,10z"/>
	<path fill="#162249" d="M138.7,10c0.8-0.1,1.5-0.2,2.2-0.3c0.7-0.1,1.2-0.1,1.7-0.1c0.5,0,1.1,0,1.8,0.1c0.7,0.1,1.4,0.1,2.2,0.3
		v25.1h10.3c0.1,0.7,0.2,1.4,0.3,1.9c0,0.6,0.1,1.1,0.1,1.5c0,0.5,0,1-0.1,1.6c0,0.6-0.1,1.2-0.3,2h-18.3V10z"/>
	<path fill="#FFFFFF" d="M50.3,49.4c0.3,0,0.5-0.1,0.7-0.1c0.2,0,0.4,0,0.6,0c0.2,0,0.4,0,0.7,0c0.2,0,0.4,0.1,0.6,0.1l4,6v-6
		c0.3,0,0.6-0.1,0.8-0.1c0.2,0,0.5,0,0.7,0c0.2,0,0.4,0,0.6,0c0.2,0,0.5,0.1,0.7,0.1l0,10.9c-0.1,0-0.3,0.1-0.5,0.1
		c-0.2,0-0.5,0-0.7,0c-0.3,0-0.6,0-0.8-0.1c-0.2,0-0.4-0.1-0.5-0.1l-4.1-6v6c-0.5,0.1-1,0.1-1.4,0.1c-0.4,0-0.9,0-1.4-0.1V49.4z"/>
	<path fill="#FFFFFF" d="M68.3,54.6c0,0.4-0.1,0.8-0.2,1.2h-3.4V58h4.4c0.1,0.4,0.2,0.8,0.2,1.2c0,0.4-0.1,0.8-0.2,1.2h-7.4v-11h7.3
		c0,0.2,0.1,0.4,0.1,0.6c0,0.2,0,0.4,0,0.6c0,0.3,0,0.7-0.1,1.2h-4.3v1.7h3.4C68.3,53.9,68.3,54.3,68.3,54.6z"/>
	<path fill="#FFFFFF" d="M82.4,49.4c0.3-0.1,0.6-0.1,0.8-0.1c0.2,0,0.4,0,0.6,0c0.2,0,0.5,0,0.7,0c0.3,0,0.5,0,0.9,0.1l-3,10.9
		c-0.2,0-0.4,0.1-0.7,0.1c-0.3,0-0.6,0-0.9,0c-0.3,0-0.6,0-0.9-0.1c-0.3,0-0.5-0.1-0.6-0.1L77.6,54l-1.8,6.3c-0.1,0-0.3,0-0.6,0.1
		c-0.3,0-0.6,0.1-0.9,0.1c-0.3,0-0.6,0-0.9,0c-0.3,0-0.5-0.1-0.6-0.1l-2.9-10.9c0.3-0.1,0.6-0.1,0.9-0.1c0.3,0,0.6,0,0.8,0
		c0.2,0,0.4,0,0.7,0c0.2,0,0.5,0,0.8,0.1l1.4,7c0.3-1.1,0.6-2.3,0.9-3.5c0.3-1.2,0.6-2.4,0.9-3.5c0.2,0,0.4-0.1,0.7-0.1
		c0.3,0,0.5,0,0.8,0c0.2,0,0.5,0,0.7,0c0.2,0,0.5,0.1,0.6,0.1l1.8,7.1L82.4,49.4z"/>
	<path fill="#FFFFFF" d="M91.4,53.6c0.5,0.2,0.9,0.3,1.3,0.5c0.4,0.2,0.7,0.4,1,0.6c0.3,0.3,0.5,0.6,0.6,0.9
		c0.2,0.4,0.2,0.8,0.2,1.3c0,0.5-0.1,1-0.3,1.5c-0.2,0.4-0.5,0.8-0.9,1.1c-0.4,0.3-0.9,0.6-1.5,0.7c-0.6,0.2-1.3,0.3-2.1,0.3
		c-0.7,0-1.4-0.1-1.9-0.2c-0.6-0.1-1.1-0.3-1.8-0.5c0-0.4,0.1-0.7,0.2-1.1c0.1-0.4,0.3-0.8,0.4-1.2c1.1,0.4,2,0.6,2.8,0.6
		c0.6,0,1.1-0.1,1.4-0.2c0.3-0.2,0.5-0.4,0.5-0.8c0-0.2,0-0.3-0.1-0.4c-0.1-0.1-0.2-0.2-0.3-0.3c-0.1-0.1-0.2-0.2-0.4-0.2
		c-0.1-0.1-0.3-0.1-0.4-0.2l-1-0.3c-0.4-0.1-0.8-0.3-1.1-0.5s-0.6-0.4-0.9-0.7c-0.2-0.2-0.4-0.5-0.6-0.9c-0.1-0.3-0.2-0.7-0.2-1.1
		c0-0.5,0.1-1,0.3-1.4c0.2-0.4,0.5-0.8,0.9-1.1c0.4-0.3,0.8-0.5,1.4-0.7c0.5-0.1,1.1-0.2,1.8-0.2c0.6,0,1.2,0.1,1.7,0.2
		c0.6,0.1,1.1,0.2,1.8,0.4c0,0.3-0.1,0.7-0.3,1.1c-0.1,0.4-0.3,0.8-0.5,1.1c-0.3-0.1-0.7-0.2-1.1-0.4c-0.4-0.1-0.9-0.2-1.5-0.2
		c-0.2,0-0.4,0-0.5,0c-0.2,0-0.3,0.1-0.5,0.1c-0.1,0.1-0.2,0.2-0.3,0.3c-0.1,0.1-0.1,0.3-0.1,0.4c0,0.3,0.1,0.5,0.3,0.7
		c0.2,0.1,0.5,0.3,0.8,0.4L91.4,53.6z"/>
	<path fill="#FFFFFF" d="M100.1,49.4c0.6-0.1,1.1-0.1,1.6-0.1c0.5,0,1-0.1,1.5-0.1c0.6,0,1.3,0.1,1.9,0.2c0.6,0.1,1.2,0.3,1.7,0.6
		c0.5,0.3,0.9,0.6,1.2,1.1c0.3,0.5,0.5,1,0.5,1.7c0,0.4,0,0.7-0.1,1c-0.1,0.3-0.2,0.6-0.4,0.8c-0.2,0.2-0.3,0.4-0.5,0.6
		c-0.2,0.2-0.4,0.3-0.6,0.4l2.7,4.7c-0.3,0-0.6,0.1-0.9,0.1c-0.3,0-0.6,0-0.9,0c-0.2,0-0.5,0-0.8,0c-0.3,0-0.6-0.1-0.8-0.1l-2.5-5
		l0.2-0.1c0.1-0.1,0.3-0.2,0.5-0.3c0.2-0.1,0.3-0.3,0.5-0.5c0.1-0.2,0.3-0.4,0.4-0.7c0.1-0.2,0.1-0.5,0.1-0.8c0-0.5-0.2-0.9-0.5-1.1
		c-0.3-0.2-0.7-0.4-1.2-0.4c-0.1,0-0.2,0-0.3,0c-0.1,0-0.1,0-0.2,0v8.8c-0.6,0.1-1.1,0.1-1.5,0.1c-0.4,0-0.9,0-1.5-0.1V49.4z"/>
	<path fill="#FFFFFF" d="M112.9,60.3c-0.3,0-0.5,0.1-0.7,0.1c-0.2,0-0.4,0-0.6,0c-0.2,0-0.4,0-0.7,0c-0.3,0-0.6-0.1-0.9-0.1
		l3.9-10.9c0.3,0,0.6-0.1,0.8-0.1c0.3,0,0.5,0,0.8,0c0.2,0,0.5,0,0.7,0c0.3,0,0.6,0,0.9,0.1l3.8,10.9c-0.7,0.1-1.2,0.1-1.7,0.1
		c-0.2,0-0.5,0-0.7,0c-0.2,0-0.5-0.1-0.7-0.1l-0.7-2.1c-0.3,0.1-0.6,0.1-0.9,0.2c-0.3,0-0.6,0.1-0.9,0.1c-0.3,0-0.5,0-0.8-0.1
		c-0.3,0-0.6-0.1-0.9-0.2L112.9,60.3z M115.3,52.2l-1.2,3.9c0.2,0.1,0.4,0.1,0.6,0.1c0.2,0,0.4,0,0.5,0c0.2,0,0.4,0,0.6,0
		c0.2,0,0.4-0.1,0.6-0.1L115.3,52.2z"/>
	<path fill="#FFFFFF" d="M125.5,49.2c2.2,0,3.9,0.5,5,1.4c1.1,1,1.7,2.4,1.7,4.3c0,1.9-0.6,3.4-1.7,4.3c-1.2,0.9-2.9,1.4-5.2,1.4
		c-0.6,0-1.1,0-1.7-0.1c-0.5,0-1.1-0.1-1.6-0.2V49.4c0.2,0,0.4,0,0.7-0.1c0.3,0,0.6,0,0.9-0.1c0.3,0,0.6,0,1-0.1
		C124.8,49.2,125.2,49.2,125.5,49.2z M125.1,58.1c0.1,0,0.2,0,0.3,0s0.2,0,0.3,0c0.5,0,0.9,0,1.3-0.1c0.4-0.1,0.7-0.3,1-0.5
		c0.3-0.2,0.5-0.6,0.7-1c0.2-0.4,0.3-1,0.3-1.6c0-0.6-0.1-1.2-0.3-1.6c-0.2-0.4-0.4-0.8-0.7-1c-0.3-0.2-0.6-0.4-1-0.5
		c-0.4-0.1-0.8-0.2-1.2-0.2c-0.2,0-0.4,0-0.5,0c-0.1,0-0.2,0-0.2,0V58.1z"/>
	<path fill="#FFFFFF" d="M135.5,60.4c-0.4,0-0.9,0-1.5-0.1V49.4c0.3,0,0.6-0.1,0.9-0.1c0.3,0,0.5,0,0.7,0c0.2,0,0.4,0,0.7,0
		c0.3,0,0.5,0.1,0.8,0.1v10.9C136.4,60.4,135.9,60.4,135.5,60.4z"/>
	<path fill="#FFFFFF" d="M138.8,54.9c0-0.8,0.1-1.6,0.3-2.3c0.2-0.7,0.5-1.3,1-1.8c0.4-0.5,1-0.9,1.7-1.2c0.7-0.3,1.5-0.4,2.5-0.4
		s1.8,0.1,2.5,0.4c0.7,0.3,1.2,0.7,1.7,1.2c0.4,0.5,0.8,1.1,1,1.8c0.2,0.7,0.3,1.5,0.3,2.3c0,0.8-0.1,1.6-0.3,2.3s-0.5,1.3-1,1.8
		c-0.4,0.5-1,0.9-1.7,1.2c-0.7,0.3-1.5,0.4-2.5,0.4s-1.8-0.1-2.5-0.4c-0.7-0.3-1.3-0.7-1.7-1.2c-0.4-0.5-0.8-1.1-1-1.8
		S138.8,55.7,138.8,54.9z M146.5,54.9c0-2.2-0.7-3.3-2.2-3.3c-1.5,0-2.3,1.1-2.3,3.3c0,1.1,0.2,1.9,0.5,2.5c0.4,0.5,0.9,0.8,1.7,0.8
		C145.7,58.2,146.5,57.1,146.5,54.9z"/>
</g>
<g>
	<path fill="#ED2738" d="M44.6,67.1H46v5H45V68h-1L44.6,67.1z"/>
	<path fill="#ED2738" d="M48.6,68.7h-0.9c0-0.5,0.2-1,0.5-1.3c0.3-0.3,0.7-0.5,1.2-0.5c0.3,0,0.6,0.1,0.8,0.2
		c0.2,0.1,0.4,0.3,0.6,0.6c0.1,0.2,0.2,0.5,0.2,0.7c0,0.3-0.1,0.6-0.3,1c-0.2,0.3-0.5,0.7-0.9,1.2l-0.6,0.6h1.8v0.9h-3.5v-0.5
		l1.5-1.6c0.4-0.4,0.6-0.7,0.7-0.9c0.1-0.2,0.2-0.4,0.2-0.6c0-0.2-0.1-0.4-0.2-0.5c-0.1-0.1-0.3-0.2-0.5-0.2c-0.2,0-0.4,0.1-0.5,0.2
		C48.6,68.2,48.6,68.4,48.6,68.7z"/>
	<path fill="#ED2738" d="M52.4,67.1h1.4v5h-0.9V68h-1L52.4,67.1z"/>
	<path fill="#ED2738" d="M57.1,67c0.4,0,0.7,0.1,0.9,0.3c0.3,0.2,0.5,0.5,0.6,0.8c0.1,0.4,0.2,0.9,0.2,1.5c0,0.7-0.1,1.2-0.2,1.5
		c-0.1,0.4-0.3,0.6-0.6,0.8c-0.2,0.2-0.6,0.3-0.9,0.3c-0.4,0-0.7-0.1-0.9-0.3c-0.3-0.2-0.5-0.4-0.6-0.8c-0.1-0.4-0.2-0.9-0.2-1.5
		c0-0.9,0.1-1.6,0.4-2C56.1,67.2,56.5,67,57.1,67z M57.1,67.9c-0.2,0-0.3,0.1-0.4,0.2c-0.1,0.1-0.2,0.3-0.3,0.5
		c-0.1,0.3-0.1,0.6-0.1,1.1c0,0.6,0.1,1.1,0.2,1.3c0.2,0.2,0.3,0.4,0.6,0.4c0.2,0,0.4-0.1,0.5-0.3c0.2-0.3,0.2-0.7,0.2-1.4
		c0-0.7-0.1-1.1-0.2-1.4C57.5,68,57.4,67.9,57.1,67.9z"/>
	<path fill="#ED2738" d="M63.1,67.1h1l1.9,5h-1l-0.4-1h-2l-0.4,1h-1L63.1,67.1z M63.6,68.4L63,70.1h1.3L63.6,68.4z"/>
	<path fill="#ED2738" d="M67.3,67.1h0.9l1.2,3.5l1.2-3.5h0.9l0.8,5h-0.9l-0.5-3.1l-1.1,3.1h-0.8l-1-3.1l-0.5,3.1h-0.9L67.3,67.1z"/>
	<path fill="#ED2738" d="M79.4,71c-0.6,0-1.1-0.5-1.1-1.1c0-0.6,0.5-1.1,1.1-1.1c0.6,0,1.1,0.5,1.1,1.1C80.5,70.5,80,71,79.4,71z"/>
	<path fill="#ED2738" d="M86,67.1h1.4v5h-0.9V68h-1L86,67.1z"/>
	<path fill="#ED2738" d="M90.7,67c0.4,0,0.7,0.1,0.9,0.3c0.3,0.2,0.5,0.5,0.6,0.8c0.1,0.4,0.2,0.9,0.2,1.5c0,0.7-0.1,1.2-0.2,1.5
		c-0.1,0.4-0.3,0.6-0.6,0.8s-0.6,0.3-0.9,0.3c-0.4,0-0.7-0.1-0.9-0.3c-0.3-0.2-0.5-0.4-0.6-0.8c-0.1-0.4-0.2-0.9-0.2-1.5
		c0-0.9,0.1-1.6,0.4-2C89.7,67.2,90.2,67,90.7,67z M90.8,67.9c-0.2,0-0.3,0.1-0.4,0.2c-0.1,0.1-0.2,0.3-0.3,0.5
		c-0.1,0.3-0.1,0.6-0.1,1.1c0,0.6,0.1,1.1,0.2,1.3c0.1,0.2,0.3,0.4,0.6,0.4c0.2,0,0.4-0.1,0.5-0.3c0.2-0.3,0.2-0.7,0.2-1.4
		c0-0.7-0.1-1.1-0.2-1.4C91.2,68,91,67.9,90.8,67.9z"/>
	<path fill="#ED2738" d="M93.9,67.1h1.4v5h-0.9V68h-1L93.9,67.1z"/>
	<path fill="#ED2738" d="M97.6,71.1c0.1,0,0.3,0.1,0.4,0.2c0.1,0.1,0.2,0.2,0.2,0.4c0,0.1-0.1,0.3-0.2,0.4c-0.1,0.1-0.2,0.2-0.4,0.2
		c-0.1,0-0.3-0.1-0.4-0.2c-0.1-0.1-0.2-0.2-0.2-0.4c0-0.1,0.1-0.3,0.2-0.4C97.3,71.2,97.5,71.1,97.6,71.1z"/>
	<path fill="#ED2738" d="M99.7,67.1h1.4v5h-0.9V68h-1L99.7,67.1z"/>
	<path fill="#ED2738" d="M105.1,67.1h2.5V68H106v0.9h1.5v0.9H106v2.2h-0.9V67.1z"/>
	<path fill="#ED2738" d="M108.9,67.1h0.9l1.2,3.5l1.2-3.5h0.9l0.8,5H113l-0.5-3.1l-1.1,3.1h-0.8l-1-3.1l-0.5,3.1H108L108.9,67.1z"/>
	<path fill="#ED2738" d="M121.6,71c-0.6,0-1.1-0.5-1.1-1.1c0-0.6,0.5-1.1,1.1-1.1c0.6,0,1.1,0.5,1.1,1.1
		C122.7,70.5,122.2,71,121.6,71z"/>
	<path fill="#ED2738" d="M128.3,67.1h1.4v5h-0.9V68h-1L128.3,67.1z"/>
	<path fill="#ED2738" d="M132.2,67.1h1.4v5h-0.9V68h-1L132.2,67.1z"/>
	<path fill="#ED2738" d="M136.1,67.1h1.4v5h-0.9V68h-1L136.1,67.1z"/>
	<path fill="#ED2738" d="M140.8,67c0.4,0,0.7,0.1,0.9,0.3c0.3,0.2,0.5,0.5,0.6,0.8c0.1,0.4,0.2,0.9,0.2,1.5c0,0.7-0.1,1.2-0.2,1.5
		c-0.1,0.4-0.3,0.6-0.6,0.8s-0.6,0.3-0.9,0.3c-0.4,0-0.7-0.1-0.9-0.3c-0.3-0.2-0.5-0.4-0.6-0.8c-0.1-0.4-0.2-0.9-0.2-1.5
		c0-0.9,0.1-1.6,0.4-2C139.8,67.2,140.3,67,140.8,67z M140.9,67.9c-0.2,0-0.3,0.1-0.4,0.2c-0.1,0.1-0.2,0.3-0.3,0.5
		c-0.1,0.3-0.1,0.6-0.1,1.1c0,0.6,0.1,1.1,0.2,1.3c0.1,0.2,0.3,0.4,0.6,0.4c0.2,0,0.4-0.1,0.5-0.3c0.2-0.3,0.2-0.7,0.2-1.4
		c0-0.7-0.1-1.1-0.2-1.4C141.3,68,141.1,67.9,140.9,67.9z"/>
	<path fill="#ED2738" d="M146.9,67.1h1l1.9,5h-1l-0.4-1h-2l-0.4,1h-1L146.9,67.1z M147.4,68.4l-0.7,1.7h1.3L147.4,68.4z"/>
	<path fill="#ED2738" d="M151,67.1h0.9l1.2,3.5l1.2-3.5h0.9l0.8,5h-0.9l-0.5-3.1l-1.1,3.1h-0.8l-1-3.1l-0.5,3.1h-0.9L151,67.1z"/>
</g>
</svg>
