<?xml version="1.0" encoding="utf-8"?>
<!-- Generator: Adobe Illustrator 18.1.1, SVG Export Plug-In . SVG Version: 6.00 Build 0)  -->
<!DOCTYPE svg PUBLIC "-//W3C//DTD SVG 1.1//EN" "http://www.w3.org/Graphics/SVG/1.1/DTD/svg11.dtd">
<svg version="1.1" id="Layer_3" xmlns="http://www.w3.org/2000/svg" xmlns:xlink="http://www.w3.org/1999/xlink" x="0px" y="0px"
	 viewBox="0 0 137 65" enable-background="new 0 0 137 65" xml:space="preserve">
<g>
	<path fill="#EE2938" d="M13.4,58.4h3.4V43.8c0,0,0-0.1-0.1,0l0,0c-1.1,0.2-2.2,0.2-3.2,0l0,0c0,0-0.1,0-0.1,0V58.4z"/>
	<rect x="12.9" y="50.4" fill="#EE2938" width="4.4" height="8"/>
	<rect x="10.4" y="58.4" fill="#EE2938" width="9.5" height="1.4"/>
	<rect x="6" y="59.9" fill="#EE2938" width="18.2" height="1.5"/>
	<rect x="6.9" y="57.8" fill="#EE2938" width="2" height="2.1"/>
	<path fill="#EE2938" d="M136.3,63.7l0-0.8L36.1,62.8c-1.6,0-3-0.9-3.8-2.4c-0.1-0.2-0.2-0.4-0.3-0.6c-1.3-2.6-2.7-5.6-7-4.8
		c-2.1,0.4-3,2.4-3,2.8c0,0.2,0.2,0.4,0.4,0.4v-0.4l0.3-0.3c0.1,0.1,0.1,0.2,0.1,0.3c0-0.2,0.7-1.7,2.4-2c3.7-0.8,4.9,1.7,6.2,4.3
		c0.1,0.2,0.2,0.4,0.3,0.6c0.9,1.8,2.6,2.9,4.5,2.9L136.3,63.7z"/>
	<rect x="2.3" y="19" fill="#EE2938" width="25.6" height="2.5"/>
	<path fill="#EE2938" d="M3.5,12.3v25.9c0,1.3,0.6,2.5,1.5,3.3v0c6.1,4.8,14.2,4.8,20.3,0l0,0c1-0.8,1.5-2,1.5-3.3V12.3h1.9v27.5
		c0,1.4-0.7,2.7-1.7,3.4l-2.8,1.9c-5.6,3.8-12.6,3.8-18.2,0l-2.8-1.9c-1.1-0.7-1.7-2-1.7-3.4V12.3H3.5z"/>
	<rect x="21.5" y="57.4" fill="#EE2938" width="1.9" height="2.4"/>
</g>
<path id="XMLID_22_" fill="#162249" d="M5.1,19.9v9.2c0,5.4,4.5,9.9,9.9,9.9h0c5.4,0,9.9-4.5,9.9-9.9v-9.2H5.1z"/>
<g id="XMLID_3_">
	<path id="XMLID_21_" fill="#162249" d="M24.9,20.1v-10c0-5.4-4.5-9.9-9.9-9.9h0c-5.4,0-9.9,4.5-9.9,9.9v10H24.9z"/>
	<path id="XMLID_20_" fill="#FFFFFF" d="M13.2,7.3V7.1c0-0.2-0.2-0.4-0.4-0.4h-7c-0.1,0.3-0.2,0.7-0.3,1h7.4
		C13,7.7,13.2,7.6,13.2,7.3z"/>
	<path id="XMLID_19_" fill="#FFFFFF" d="M13.2,10.6v-0.2c0-0.2-0.2-0.4-0.4-0.4H5.1c0,0,0,0.1,0,0.1V11h7.7
		C13,11,13.2,10.9,13.2,10.6z"/>
	<path id="XMLID_18_" fill="#FFFFFF" d="M13.2,13.9v-0.2c0-0.2-0.2-0.4-0.4-0.4H5.1v1h7.7C13,14.3,13.2,14.2,13.2,13.9z"/>
	<path id="XMLID_17_" fill="#FFFFFF" d="M13.2,17.2V17c0-0.2-0.2-0.4-0.4-0.4H5.1v1h7.7C13,17.6,13.2,17.5,13.2,17.2z"/>
	<path id="XMLID_16_" fill="#FFFFFF" d="M16.8,7.1v0.2c0,0.2,0.2,0.4,0.4,0.4h7.4c-0.1-0.3-0.2-0.7-0.3-1h-7
		C17,6.7,16.8,6.9,16.8,7.1z"/>
	<path id="XMLID_15_" fill="#FFFFFF" d="M16.8,10.4v0.2c0,0.2,0.2,0.4,0.4,0.4h7.7v-0.9c0,0,0-0.1,0-0.1h-7.7
		C17,10,16.8,10.2,16.8,10.4z"/>
	<path id="XMLID_5_" fill="#FFFFFF" d="M16.8,13.7v0.2c0,0.2,0.2,0.4,0.4,0.4h7.7v-1h-7.7C17,13.3,16.8,13.5,16.8,13.7z"/>
	<path id="XMLID_4_" fill="#FFFFFF" d="M16.8,17v0.2c0,0.2,0.2,0.4,0.4,0.4h7.7v-1h-7.7C17,16.6,16.8,16.8,16.8,17z"/>
</g>
<rect x="35.4" y="37.2" fill="#162249" width="101.2" height="16"/>
<g>
	<path fill="#162249" d="M63.5,6.4c0.7-0.1,1.2-0.2,1.7-0.3c0.5,0,0.9-0.1,1.4-0.1c0.5,0,1.1,0,1.6,0.1c0.6,0,1.2,0.1,1.9,0.3
		l-6.7,27.7c-0.4,0.1-0.9,0.2-1.5,0.2c-0.6,0.1-1.3,0.1-2,0.1c-0.7,0-1.4,0-2.1-0.1c-0.7-0.1-1.1-0.2-1.4-0.2L52.9,18l-3.9,16.1
		c-0.2,0.1-0.7,0.1-1.3,0.2c-0.6,0.1-1.3,0.1-2,0.1c-0.7,0-1.4,0-1.9-0.1c-0.6-0.1-1-0.2-1.4-0.2L35.6,6.4c0.7-0.1,1.4-0.2,2.1-0.3
		c0.7-0.1,1.3-0.1,1.8-0.1c0.5,0,1,0,1.5,0.1c0.5,0,1.1,0.1,1.8,0.3l3.2,17.7c0.6-2.8,1.3-5.8,1.9-8.9c0.6-3.1,1.3-6,1.9-8.8
		c0.5-0.1,1-0.1,1.6-0.2c0.6-0.1,1.2-0.1,1.7-0.1c0.5,0,1,0,1.6,0.1c0.5,0.1,1,0.1,1.4,0.2l4,17.9L63.5,6.4z"/>
	<path fill="#162249" d="M71.7,28.3c0.2,0.1,0.6,0.1,1,0.2c0.5,0.1,1,0.1,1.5,0.1c0.3,0,0.6,0,1-0.1s0.7-0.2,1-0.3s0.5-0.5,0.8-0.9
		c0.2-0.4,0.3-0.9,0.3-1.6V12.4H73c-0.2-1.1-0.3-2.1-0.3-3.1c0-0.9,0.1-1.9,0.3-3h11.1v20.2c0,1.5-0.2,2.7-0.7,3.8s-1.1,1.9-1.9,2.5
		c-0.8,0.6-1.7,1.1-2.8,1.4c-1.1,0.3-2.2,0.4-3.5,0.4c-0.8,0-1.5-0.1-2.3-0.2c-0.8-0.1-1.4-0.3-2-0.4c0-0.2,0-0.4-0.1-0.6
		c0-0.2,0-0.4,0-0.7C70.9,31.3,71.2,29.8,71.7,28.3z"/>
	<path fill="#162249" d="M89.4,6.4c0.5-0.1,1.1-0.1,1.8-0.2c0.6-0.1,1.2-0.1,1.8-0.1c0.5,0,1.1,0,1.7,0.1c0.6,0.1,1.2,0.1,1.7,0.2
		l5.5,14.4l5.7-14.4c0.5-0.1,1-0.1,1.6-0.2c0.5-0.1,1.1-0.1,1.6-0.1c0.5,0,1.1,0,1.7,0.1c0.6,0.1,1.1,0.1,1.7,0.2l1.3,27.7
		c-0.4,0.1-0.9,0.2-1.4,0.2c-0.5,0.1-1.2,0.1-2,0.1c-0.9,0-2-0.1-3.2-0.3L108.2,18L104,28.6c-0.5,0.1-0.9,0.1-1.4,0.2
		c-0.5,0.1-0.9,0.1-1.3,0.1s-0.8,0-1.2-0.1c-0.4,0-0.8-0.1-1.3-0.2L95,18.2l-0.4,15.9c-1.1,0.2-2.1,0.3-3.1,0.3
		c-0.9,0-2-0.1-3.1-0.3L89.4,6.4z"/>
	<path fill="#162249" d="M119.7,6.4c0.7-0.1,1.3-0.2,1.9-0.2c0.6-0.1,1.1-0.1,1.5-0.1c0.5,0,1,0,1.6,0.1c0.6,0.1,1.2,0.1,1.9,0.2
		v21.8h9c0.1,0.6,0.2,1.2,0.3,1.7c0,0.5,0.1,0.9,0.1,1.3c0,0.4,0,0.9-0.1,1.4c0,0.5-0.1,1.1-0.3,1.7h-15.8V6.4z"/>
	<path fill="#FFFFFF" d="M43,40.5c0.2,0,0.4-0.1,0.6-0.1s0.4,0,0.5,0c0.2,0,0.4,0,0.6,0c0.2,0,0.4,0,0.5,0.1l3.5,5.2v-5.2
		c0.3,0,0.5-0.1,0.7-0.1c0.2,0,0.4,0,0.6,0s0.4,0,0.5,0c0.2,0,0.4,0,0.6,0.1l0,9.5c-0.1,0-0.2,0.1-0.4,0.1s-0.4,0-0.6,0
		c-0.3,0-0.5,0-0.7,0c-0.2,0-0.3-0.1-0.4-0.1l-3.5-5.2V50c-0.4,0.1-0.8,0.1-1.2,0.1c-0.4,0-0.8,0-1.2-0.1V40.5z"/>
	<path fill="#FFFFFF" d="M58.7,45.1c0,0.3,0,0.7-0.1,1h-2.9V48h3.8c0.1,0.4,0.1,0.7,0.1,1c0,0.3,0,0.7-0.1,1h-6.5v-9.6h6.4
		c0,0.2,0.1,0.4,0.1,0.5c0,0.2,0,0.3,0,0.5c0,0.3,0,0.6-0.1,1.1h-3.7V44h2.9C58.6,44.4,58.7,44.8,58.7,45.1z"/>
	<path fill="#FFFFFF" d="M70.9,40.5c0.3,0,0.5-0.1,0.7-0.1c0.2,0,0.4,0,0.6,0c0.2,0,0.4,0,0.6,0c0.2,0,0.5,0,0.8,0.1L70.9,50
		c-0.2,0-0.3,0.1-0.6,0.1c-0.2,0-0.5,0-0.8,0s-0.6,0-0.8,0S68.2,50,68.2,50l-1.4-5.5L65.2,50c-0.1,0-0.3,0-0.5,0.1
		c-0.2,0-0.5,0-0.8,0c-0.3,0-0.5,0-0.8,0s-0.4-0.1-0.6-0.1L60,40.5c0.3,0,0.6-0.1,0.8-0.1c0.3,0,0.5,0,0.7,0c0.2,0,0.4,0,0.6,0
		c0.2,0,0.4,0,0.7,0.1l1.3,6.1c0.3-1,0.5-2,0.8-3.1c0.3-1.1,0.5-2.1,0.7-3c0.2,0,0.4-0.1,0.6-0.1c0.2,0,0.4,0,0.7,0
		c0.2,0,0.4,0,0.6,0c0.2,0,0.4,0,0.5,0.1l1.6,6.1L70.9,40.5z"/>
	<path fill="#FFFFFF" d="M78.7,44.2c0.4,0.2,0.8,0.3,1.1,0.5c0.3,0.2,0.6,0.3,0.9,0.6c0.2,0.2,0.4,0.5,0.6,0.8
		c0.1,0.3,0.2,0.7,0.2,1.1c0,0.5-0.1,0.9-0.3,1.3c-0.2,0.4-0.5,0.7-0.8,1C80,49.7,79.5,49.9,79,50c-0.5,0.1-1.1,0.2-1.8,0.2
		c-0.6,0-1.2,0-1.7-0.1c-0.5-0.1-1-0.2-1.5-0.4c0-0.3,0.1-0.6,0.2-1c0.1-0.3,0.2-0.7,0.4-1.1c0.9,0.4,1.7,0.5,2.4,0.5
		c0.5,0,0.9-0.1,1.2-0.2s0.4-0.4,0.4-0.7c0-0.1,0-0.3-0.1-0.4c-0.1-0.1-0.1-0.2-0.2-0.3c-0.1-0.1-0.2-0.1-0.3-0.2s-0.3-0.1-0.4-0.1
		L76.7,46c-0.4-0.1-0.7-0.3-1-0.4s-0.6-0.3-0.8-0.6c-0.2-0.2-0.4-0.5-0.5-0.8c-0.1-0.3-0.2-0.6-0.2-1c0-0.5,0.1-0.9,0.3-1.2
		c0.2-0.4,0.4-0.7,0.8-0.9c0.3-0.3,0.7-0.4,1.2-0.6c0.5-0.1,1-0.2,1.6-0.2c0.5,0,1,0,1.5,0.1s1,0.2,1.5,0.4c0,0.3-0.1,0.6-0.2,0.9
		c-0.1,0.3-0.2,0.7-0.4,1c-0.3-0.1-0.6-0.2-0.9-0.3s-0.8-0.2-1.3-0.2c-0.2,0-0.3,0-0.5,0c-0.1,0-0.3,0.1-0.4,0.1
		c-0.1,0.1-0.2,0.1-0.3,0.2C77,42.8,77,42.9,77,43.1c0,0.3,0.1,0.4,0.3,0.6c0.2,0.1,0.4,0.2,0.7,0.3L78.7,44.2z"/>
	<path fill="#FFFFFF" d="M86.3,40.5c0.5,0,0.9-0.1,1.4-0.1s0.9-0.1,1.3-0.1c0.6,0,1.1,0,1.7,0.1c0.6,0.1,1,0.3,1.5,0.5
		c0.4,0.2,0.8,0.5,1.1,0.9c0.3,0.4,0.4,0.9,0.4,1.5c0,0.3,0,0.6-0.1,0.9c-0.1,0.3-0.2,0.5-0.3,0.7s-0.3,0.4-0.5,0.5
		c-0.2,0.2-0.3,0.3-0.5,0.4l2.4,4.1c-0.2,0-0.5,0.1-0.8,0.1s-0.5,0-0.8,0c-0.2,0-0.4,0-0.7,0s-0.5,0-0.7-0.1l-2.1-4.3l0.1-0.1
		c0.1-0.1,0.3-0.1,0.4-0.3c0.1-0.1,0.3-0.3,0.4-0.4s0.2-0.4,0.3-0.6s0.1-0.4,0.1-0.7c0-0.4-0.1-0.8-0.4-1c-0.3-0.2-0.6-0.3-1-0.3
		c-0.1,0-0.2,0-0.3,0s-0.1,0-0.1,0V50c-0.5,0.1-1,0.1-1.3,0.1c-0.4,0-0.8,0-1.3-0.1V40.5z"/>
	<path fill="#FFFFFF" d="M97.4,50c-0.2,0-0.4,0.1-0.6,0.1c-0.2,0-0.4,0-0.6,0c-0.2,0-0.4,0-0.6,0c-0.2,0-0.5-0.1-0.8-0.1l3.4-9.5
		c0.3,0,0.5,0,0.7-0.1s0.5,0,0.7,0c0.2,0,0.4,0,0.6,0s0.5,0,0.8,0.1l3.3,9.5c-0.6,0.1-1.1,0.1-1.5,0.1c-0.2,0-0.4,0-0.6,0
		c-0.2,0-0.4,0-0.6-0.1l-0.6-1.8c-0.3,0.1-0.6,0.1-0.8,0.2s-0.5,0.1-0.8,0.1c-0.2,0-0.5,0-0.7,0c-0.2,0-0.5-0.1-0.8-0.1L97.4,50z
		 M99.5,43l-1,3.4c0.2,0,0.3,0.1,0.5,0.1c0.2,0,0.3,0,0.5,0c0.2,0,0.3,0,0.5,0c0.2,0,0.3-0.1,0.5-0.1L99.5,43z"/>
	<path fill="#FFFFFF" d="M108.3,40.3c1.9,0,3.3,0.4,4.3,1.3c1,0.8,1.5,2.1,1.5,3.7c0,1.7-0.5,2.9-1.5,3.7c-1,0.8-2.5,1.2-4.5,1.2
		c-0.5,0-1,0-1.5-0.1c-0.5,0-0.9-0.1-1.4-0.1v-9.5c0.2,0,0.3,0,0.6-0.1c0.2,0,0.5,0,0.8-0.1c0.3,0,0.6,0,0.8,0
		C107.7,40.4,108,40.3,108.3,40.3z M107.9,48.1c0.1,0,0.2,0,0.2,0s0.2,0,0.3,0c0.4,0,0.8,0,1.1-0.1c0.3-0.1,0.6-0.2,0.9-0.4
		c0.3-0.2,0.5-0.5,0.6-0.9c0.1-0.4,0.2-0.8,0.2-1.4c0-0.6-0.1-1-0.2-1.4c-0.2-0.4-0.3-0.7-0.6-0.9c-0.2-0.2-0.5-0.4-0.9-0.5
		s-0.7-0.1-1-0.1c-0.2,0-0.3,0-0.4,0s-0.2,0-0.2,0V48.1z"/>
	<path fill="#FFFFFF" d="M117,50.1c-0.4,0-0.8,0-1.3-0.1v-9.5c0.3,0,0.5-0.1,0.7-0.1s0.4,0,0.6,0c0.2,0,0.4,0,0.6,0s0.5,0,0.7,0.1
		V50C117.8,50.1,117.3,50.1,117,50.1z"/>
	<path fill="#FFFFFF" d="M119.8,45.3c0-0.7,0.1-1.4,0.3-2c0.2-0.6,0.5-1.1,0.9-1.6c0.4-0.4,0.9-0.8,1.5-1c0.6-0.3,1.3-0.4,2.1-0.4
		s1.5,0.1,2.1,0.4c0.6,0.3,1.1,0.6,1.5,1c0.4,0.4,0.7,1,0.9,1.6c0.2,0.6,0.3,1.3,0.3,2s-0.1,1.4-0.3,2s-0.5,1.1-0.9,1.6
		c-0.4,0.4-0.9,0.8-1.5,1c-0.6,0.2-1.3,0.4-2.1,0.4s-1.5-0.1-2.1-0.4c-0.6-0.2-1.1-0.6-1.5-1s-0.7-1-0.9-1.6S119.8,46,119.8,45.3z
		 M126.5,45.3c0-1.9-0.6-2.9-1.9-2.9c-1.3,0-2,1-2,2.9c0,1,0.2,1.7,0.5,2.2c0.3,0.5,0.8,0.7,1.5,0.7
		C125.9,48.2,126.5,47.2,126.5,45.3z"/>
</g>
<g>
	<path fill="#EE2938" d="M38,55.9h1.2v4.3h-0.8v-3.6h-0.9L38,55.9z"/>
	<path fill="#EE2938" d="M41.5,57.3h-0.8c0-0.5,0.2-0.8,0.4-1.1c0.3-0.3,0.6-0.4,1-0.4c0.3,0,0.5,0.1,0.7,0.2
		c0.2,0.1,0.4,0.3,0.5,0.5s0.2,0.4,0.2,0.6c0,0.3-0.1,0.5-0.2,0.8c-0.1,0.3-0.4,0.6-0.8,1.1L42,59.5h1.5v0.8h-3v-0.4l1.3-1.4
		c0.3-0.3,0.5-0.6,0.6-0.8c0.1-0.2,0.2-0.4,0.2-0.5c0-0.2-0.1-0.3-0.2-0.4c-0.1-0.1-0.3-0.2-0.4-0.2c-0.2,0-0.3,0.1-0.4,0.2
		C41.6,56.9,41.5,57.1,41.5,57.3z"/>
	<path fill="#EE2938" d="M44.8,55.9h1.2v4.3h-0.8v-3.6h-0.9L44.8,55.9z"/>
	<path fill="#EE2938" d="M48.9,55.8c0.3,0,0.6,0.1,0.8,0.2s0.4,0.4,0.5,0.7c0.1,0.3,0.2,0.8,0.2,1.3c0,0.6-0.1,1-0.2,1.3
		c-0.1,0.3-0.3,0.6-0.5,0.7c-0.2,0.2-0.5,0.2-0.8,0.2c-0.3,0-0.6-0.1-0.8-0.2c-0.2-0.2-0.4-0.4-0.5-0.7c-0.1-0.3-0.2-0.7-0.2-1.3
		c0-0.8,0.1-1.4,0.4-1.7C48,56,48.4,55.8,48.9,55.8z M48.9,56.6c-0.1,0-0.3,0-0.4,0.1c-0.1,0.1-0.2,0.2-0.2,0.5s-0.1,0.5-0.1,1
		c0,0.5,0.1,0.9,0.2,1.1c0.1,0.2,0.3,0.3,0.5,0.3c0.2,0,0.4-0.1,0.5-0.3c0.1-0.2,0.2-0.6,0.2-1.2c0-0.6-0.1-1-0.2-1.2
		C49.3,56.7,49.1,56.6,48.9,56.6z"/>
	<path fill="#EE2938" d="M54.2,55.9H55l1.7,4.3h-0.9l-0.3-0.9h-1.8l-0.4,0.9h-0.9L54.2,55.9z M54.6,57.1L54,58.6h1.2L54.6,57.1z"/>
	<path fill="#EE2938" d="M57.7,55.9h0.8l1,3l1-3h0.8l0.7,4.3h-0.8l-0.5-2.7l-0.9,2.7h-0.7l-0.9-2.7l-0.5,2.7H57L57.7,55.9z"/>
	<path fill="#EE2938" d="M68.2,59.3c-0.5,0-0.9-0.4-0.9-0.9s0.4-0.9,0.9-0.9s0.9,0.4,0.9,0.9S68.8,59.3,68.2,59.3z"/>
	<path fill="#EE2938" d="M74,55.9h1.2v4.3h-0.8v-3.6h-0.9L74,55.9z"/>
	<path fill="#EE2938" d="M78.1,55.8c0.3,0,0.6,0.1,0.8,0.2s0.4,0.4,0.5,0.7c0.1,0.3,0.2,0.8,0.2,1.3c0,0.6-0.1,1-0.2,1.3
		c-0.1,0.3-0.3,0.6-0.5,0.7s-0.5,0.2-0.8,0.2c-0.3,0-0.6-0.1-0.8-0.2c-0.2-0.2-0.4-0.4-0.5-0.7c-0.1-0.3-0.2-0.7-0.2-1.3
		c0-0.8,0.1-1.4,0.4-1.7C77.2,56,77.6,55.8,78.1,55.8z M78.1,56.6c-0.1,0-0.3,0-0.4,0.1c-0.1,0.1-0.2,0.2-0.2,0.5
		c-0.1,0.2-0.1,0.5-0.1,1c0,0.5,0.1,0.9,0.2,1.1s0.3,0.3,0.5,0.3c0.2,0,0.4-0.1,0.5-0.3c0.1-0.2,0.2-0.6,0.2-1.2
		c0-0.6-0.1-1-0.2-1.2C78.5,56.7,78.3,56.6,78.1,56.6z"/>
	<path fill="#EE2938" d="M80.8,55.9h1.2v4.3h-0.8v-3.6h-0.9L80.8,55.9z"/>
	<path fill="#EE2938" d="M84.1,59.4c0.1,0,0.2,0,0.3,0.1c0.1,0.1,0.1,0.2,0.1,0.3c0,0.1,0,0.2-0.1,0.3c-0.1,0.1-0.2,0.1-0.3,0.1
		c-0.1,0-0.2,0-0.3-0.1c-0.1-0.1-0.1-0.2-0.1-0.3c0-0.1,0-0.2,0.1-0.3C83.8,59.5,84,59.4,84.1,59.4z"/>
	<path fill="#EE2938" d="M85.9,55.9h1.2v4.3h-0.8v-3.6h-0.9L85.9,55.9z"/>
	<path fill="#EE2938" d="M90.6,55.9h2.1v0.8h-1.3v0.8h1.3v0.8h-1.3v1.9h-0.8V55.9z"/>
	<path fill="#EE2938" d="M93.9,55.9h0.8l1,3l1-3h0.8l0.7,4.3h-0.8L97,57.5L96,60.2h-0.7l-0.9-2.7l-0.5,2.7h-0.8L93.9,55.9z"/>
	<path fill="#EE2938" d="M104.9,59.3c-0.5,0-0.9-0.4-0.9-0.9s0.4-0.9,0.9-0.9s0.9,0.4,0.9,0.9S105.5,59.3,104.9,59.3z"/>
	<path fill="#EE2938" d="M110.7,55.9h1.2v4.3h-0.8v-3.6h-0.9L110.7,55.9z"/>
	<path fill="#EE2938" d="M114.1,55.9h1.2v4.3h-0.8v-3.6h-0.9L114.1,55.9z"/>
	<path fill="#EE2938" d="M117.5,55.9h1.2v4.3h-0.8v-3.6H117L117.5,55.9z"/>
	<path fill="#EE2938" d="M121.6,55.8c0.3,0,0.6,0.1,0.8,0.2s0.4,0.4,0.5,0.7c0.1,0.3,0.2,0.8,0.2,1.3c0,0.6-0.1,1-0.2,1.3
		c-0.1,0.3-0.3,0.6-0.5,0.7s-0.5,0.2-0.8,0.2c-0.3,0-0.6-0.1-0.8-0.2c-0.2-0.2-0.4-0.4-0.5-0.7c-0.1-0.3-0.2-0.7-0.2-1.3
		c0-0.8,0.1-1.4,0.4-1.7C120.7,56,121.1,55.8,121.6,55.8z M121.6,56.6c-0.1,0-0.3,0-0.4,0.1c-0.1,0.1-0.2,0.2-0.2,0.5
		c-0.1,0.2-0.1,0.5-0.1,1c0,0.5,0.1,0.9,0.2,1.1s0.3,0.3,0.5,0.3c0.2,0,0.4-0.1,0.5-0.3c0.1-0.2,0.2-0.6,0.2-1.2
		c0-0.6-0.1-1-0.2-1.2C122,56.7,121.8,56.6,121.6,56.6z"/>
	<path fill="#EE2938" d="M126.9,55.9h0.8l1.7,4.3h-0.9l-0.3-0.9h-1.8l-0.4,0.9h-0.9L126.9,55.9z M127.3,57.1l-0.6,1.5h1.2
		L127.3,57.1z"/>
	<path fill="#EE2938" d="M130.4,55.9h0.8l1,3l1-3h0.8l0.7,4.3H134l-0.5-2.7l-0.9,2.7h-0.7l-0.9-2.7l-0.5,2.7h-0.8L130.4,55.9z"/>
</g>
</svg>
