<?xml version="1.0" encoding="utf-8"?>
<!-- Generator: Adobe Illustrator 18.1.1, SVG Export Plug-In . SVG Version: 6.00 Build 0)  -->
<!DOCTYPE svg PUBLIC "-//W3C//DTD SVG 1.1//EN" "http://www.w3.org/Graphics/SVG/1.1/DTD/svg11.dtd">
<svg version="1.1" id="Layer_3" xmlns="http://www.w3.org/2000/svg" xmlns:xlink="http://www.w3.org/1999/xlink" x="0px" y="0px"
	 viewBox="0 0 506 506" enable-background="new 0 0 506 506" xml:space="preserve">
<g>
	<path fill="#EE2938" d="M111.7,330.6h9.2v-39.8c0-0.1-0.1-0.1-0.2-0.1l0,0c-2.9,0.6-5.9,0.6-8.8,0l0,0c-0.1,0-0.2,0-0.2,0.1V330.6z
		"/>
	<rect x="110.3" y="308.8" fill="#EE2938" width="11.9" height="21.8"/>
	<rect x="103.4" y="330.6" fill="#EE2938" width="25.8" height="3.9"/>
	<rect x="91.6" y="334.5" fill="#EE2938" width="49.5" height="4.1"/>
	<rect x="93.9" y="328.9" fill="#EE2938" width="5.3" height="5.6"/>
	<path fill="#EE2938" d="M445.8,345l0-2.2l-272.4-0.4c-4.3,0-8.2-2.6-10.2-6.6c-0.3-0.5-0.5-1.1-0.8-1.6c-3.5-7.2-7.4-15.3-19-12.9
		c-5.8,1.2-8.3,6.6-8.2,7.7c0.1,0.6,0.5,1.1,1.1,1.1v-1.1l0.8-0.7c0.2,0.3,0.2,0.7,0.2,0.8c0.1-0.5,2-4.6,6.5-5.5
		c10.1-2.1,13.3,4.7,16.8,11.7c0.3,0.6,0.5,1.1,0.8,1.7c2.4,4.8,7,7.8,12.1,7.8L445.8,345z"/>
	<rect x="81.5" y="223.5" fill="#EE2938" width="69.7" height="6.9"/>
	<path fill="#EE2938" d="M84.6,205.2v70.5c0,3.6,1.5,6.9,4.1,8.9v0c16.5,13,38.6,13,55.1,0l0,0c2.6-2,4.1-5.4,4.1-8.9v-70.5h5.3
		v74.8c0,3.8-1.8,7.4-4.7,9.4l-7.5,5.1c-15.2,10.3-34.2,10.3-49.4,0l-7.5-5.1c-2.9-2-4.7-5.5-4.7-9.4v-74.8H84.6z"/>
	<rect x="133.6" y="327.9" fill="#EE2938" width="5.2" height="6.6"/>
</g>
<path id="XMLID_22_" fill="#162249" d="M89,225.7v25c0,14.8,12.1,26.9,26.9,26.9h0c14.8,0,26.9-12.1,26.9-26.9v-25H89z"/>
<g id="XMLID_3_">
	<path id="XMLID_21_" fill="#162249" d="M142.8,226.5v-27.1c0-14.8-12.1-26.9-26.9-26.9h0c-14.8,0-26.9,12.1-26.9,26.9v27.1H142.8z"
		/>
	<path id="XMLID_20_" fill="#FFFFFF" d="M110.9,191.7v-0.5c0-0.6-0.5-1.1-1.1-1.1H90.7c-0.3,0.9-0.6,1.8-0.9,2.7h20
		C110.4,192.8,110.9,192.3,110.9,191.7z"/>
	<path id="XMLID_19_" fill="#FFFFFF" d="M110.9,200.7v-0.5c0-0.6-0.5-1.1-1.1-1.1H89c0,0.1,0,0.2,0,0.3v2.4h20.8
		C110.4,201.8,110.9,201.3,110.9,200.7z"/>
	<path id="XMLID_18_" fill="#FFFFFF" d="M110.9,209.6v-0.5c0-0.6-0.5-1.1-1.1-1.1H89v2.7h20.8C110.4,210.7,110.9,210.3,110.9,209.6z
		"/>
	<path id="XMLID_17_" fill="#FFFFFF" d="M110.9,218.6v-0.5c0-0.6-0.5-1.1-1.1-1.1H89v2.7h20.8C110.4,219.7,110.9,219.2,110.9,218.6z
		"/>
	<path id="XMLID_16_" fill="#FFFFFF" d="M120.8,191.2v0.5c0,0.6,0.5,1.1,1.1,1.1h20c-0.2-0.9-0.5-1.9-0.9-2.7H122
		C121.3,190.1,120.8,190.6,120.8,191.2z"/>
	<path id="XMLID_15_" fill="#FFFFFF" d="M120.8,200.1v0.5c0,0.6,0.5,1.1,1.1,1.1h20.8v-2.4c0-0.1,0-0.2,0-0.3H122
		C121.3,199,120.8,199.5,120.8,200.1z"/>
	<path id="XMLID_5_" fill="#FFFFFF" d="M120.8,209.1v0.5c0,0.6,0.5,1.1,1.1,1.1h20.8V208H122C121.3,208,120.8,208.5,120.8,209.1z"/>
	<path id="XMLID_4_" fill="#FFFFFF" d="M120.8,218.1v0.5c0,0.6,0.5,1.1,1.1,1.1h20.8V217H122C121.3,217,120.8,217.5,120.8,218.1z"/>
</g>
<rect x="171.4" y="272.9" fill="#162249" width="275.2" height="43.4"/>
<text transform="matrix(1 0 0 1 171.7647 264.792)" fill="#162249" font-family="'AllerDisplay'" font-size="105.6069">WJML</text>
<text transform="matrix(1 0 0 0.88 189.5294 307.872)" fill="#FFFFFF" font-family="'AllerDisplay'" font-size="41.0767">NEWS RADIO</text>
<text transform="matrix(1 0 0 1 175.8541 335.5605)"><tspan x="0" y="0" fill="#EE2938" font-family="'CenturyGothic-Bold'" font-size="16.3828">1210 AM</tspan><tspan x="68.6" y="-3" fill="#EE2938" font-family="'FontAwesome'" font-size="6">      </tspan><tspan x="77.6" y="0" fill="#EE2938" font-family="'CenturyGothic-Bold'" font-size="16.3828"> </tspan><tspan x="82.3" y="-3" fill="#EE2938" font-family="'FontAwesome'" font-size="6">       </tspan><tspan x="97.9" y="0" fill="#EE2938" font-family="'CenturyGothic-Bold'" font-size="16.3828">101.1 FM</tspan><tspan x="166.9" y="-3" fill="#EE2938" font-family="'FontAwesome'" font-size="6">      </tspan><tspan x="175.9" y="0" fill="#EE2938" font-family="'CenturyGothic-Bold'" font-size="16.3828"> </tspan><tspan x="180.5" y="-3" fill="#EE2938" font-family="'FontAwesome'" font-size="6">        </tspan><tspan x="197.7" y="0" fill="#EE2938" font-family="'CenturyGothic-Bold'" font-size="16.3828">1110 AM</tspan></text>
</svg>
