<?xml version="1.0" encoding="utf-8"?>
<!-- Generator: Adobe Illustrator 18.1.1, SVG Export Plug-In . SVG Version: 6.00 Build 0)  -->
<!DOCTYPE svg PUBLIC "-//W3C//DTD SVG 1.1//EN" "http://www.w3.org/Graphics/SVG/1.1/DTD/svg11.dtd">
<svg version="1.1" id="Layer_3" xmlns="http://www.w3.org/2000/svg" xmlns:xlink="http://www.w3.org/1999/xlink" x="0px" y="0px"
	 viewBox="0 0 100 45" enable-background="new 0 0 100 45" xml:space="preserve">
<g>
	<path fill="#EE2938" d="M13,40.3h2.3v-9.8c0,0,0,0-0.1,0l0,0c-0.7,0.1-1.5,0.1-2.2,0l0,0c0,0-0.1,0-0.1,0V40.3z"/>
	<rect x="12.7" y="34.9" fill="#EE2938" width="2.9" height="5.4"/>
	<rect x="11" y="40.3" fill="#EE2938" width="6.4" height="1"/>
	<rect x="8.1" y="41.2" fill="#EE2938" width="12.2" height="1"/>
	<rect x="8.6" y="39.8" fill="#EE2938" width="1.3" height="1.4"/>
	<path fill="#EE2938" d="M95.4,43.8l0-0.6l-67.2-0.1c-1.1,0-2-0.6-2.5-1.6c-0.1-0.1-0.1-0.3-0.2-0.4c-0.9-1.8-1.8-3.8-4.7-3.2
		c-1.4,0.3-2,1.6-2,1.9c0,0.1,0.1,0.3,0.3,0.3v-0.3l0.2-0.2c0.1,0.1,0.1,0.2,0.1,0.2c0-0.1,0.5-1.1,1.6-1.4c2.5-0.5,3.3,1.1,4.1,2.9
		c0.1,0.1,0.1,0.3,0.2,0.4c0.6,1.2,1.7,1.9,3,1.9L95.4,43.8z"/>
	<rect x="5.6" y="13.9" fill="#EE2938" width="17.2" height="1.7"/>
	<path fill="#EE2938" d="M6.3,9.3v17.4c0,0.9,0.4,1.7,1,2.2v0c4.1,3.2,9.5,3.2,13.6,0l0,0c0.6-0.5,1-1.3,1-2.2V9.3h1.3v18.4
		c0,0.9-0.4,1.8-1.2,2.3l-1.9,1.3c-3.7,2.5-8.4,2.5-12.2,0l-1.9-1.3C5.5,29.6,5,28.7,5,27.8V9.3H6.3z"/>
	<rect x="18.4" y="39.6" fill="#EE2938" width="1.3" height="1.6"/>
</g>
<path id="XMLID_22_" fill="#162249" d="M7.4,14.4v6.2c0,3.6,3,6.6,6.6,6.6h0c3.6,0,6.6-3,6.6-6.6v-6.2H7.4z"/>
<g id="XMLID_3_">
	<path id="XMLID_21_" fill="#162249" d="M20.7,14.6V7.9c0-3.6-3-6.6-6.6-6.6h0c-3.6,0-6.6,3-6.6,6.6v6.7H20.7z"/>
	<path id="XMLID_20_" fill="#FFFFFF" d="M12.8,6V5.9c0-0.2-0.1-0.3-0.3-0.3H7.8C7.7,5.8,7.7,6,7.6,6.3h4.9C12.7,6.3,12.8,6.2,12.8,6
		z"/>
	<path id="XMLID_19_" fill="#FFFFFF" d="M12.8,8.2V8.1c0-0.2-0.1-0.3-0.3-0.3H7.4c0,0,0,0.1,0,0.1v0.6h5.1
		C12.7,8.5,12.8,8.4,12.8,8.2z"/>
	<path id="XMLID_18_" fill="#FFFFFF" d="M12.8,10.4v-0.1c0-0.2-0.1-0.3-0.3-0.3H7.4v0.7h5.1C12.7,10.7,12.8,10.6,12.8,10.4z"/>
	<path id="XMLID_17_" fill="#FFFFFF" d="M12.8,12.6v-0.1c0-0.2-0.1-0.3-0.3-0.3H7.4v0.7h5.1C12.7,12.9,12.8,12.8,12.8,12.6z"/>
	<path id="XMLID_16_" fill="#FFFFFF" d="M15.3,5.9V6c0,0.2,0.1,0.3,0.3,0.3h4.9c-0.1-0.2-0.1-0.5-0.2-0.7h-4.7
		C15.4,5.6,15.3,5.7,15.3,5.9z"/>
	<path id="XMLID_15_" fill="#FFFFFF" d="M15.3,8.1v0.1c0,0.2,0.1,0.3,0.3,0.3h5.1V7.9c0,0,0-0.1,0-0.1h-5.1
		C15.4,7.8,15.3,7.9,15.3,8.1z"/>
	<path id="XMLID_5_" fill="#FFFFFF" d="M15.3,10.3v0.1c0,0.2,0.1,0.3,0.3,0.3h5.1V10h-5.1C15.4,10,15.3,10.2,15.3,10.3z"/>
	<path id="XMLID_4_" fill="#FFFFFF" d="M15.3,12.5v0.1c0,0.2,0.1,0.3,0.3,0.3h5.1v-0.7h-5.1C15.4,12.2,15.3,12.4,15.3,12.5z"/>
</g>
<rect x="27.7" y="26" fill="#162249" width="67.9" height="10.7"/>
<g>
	<path fill="#162249" d="M46.6,5.4c0.5-0.1,0.8-0.1,1.1-0.2c0.3,0,0.6,0,1,0c0.3,0,0.7,0,1.1,0c0.4,0,0.8,0.1,1.3,0.2L46.6,24
		c-0.3,0.1-0.6,0.1-1,0.2c-0.4,0.1-0.9,0.1-1.3,0.1c-0.5,0-1,0-1.4-0.1C42.4,24,42.1,24,41.9,24l-2.5-10.8L36.8,24
		c-0.2,0-0.4,0.1-0.9,0.1c-0.4,0.1-0.9,0.1-1.4,0.1c-0.5,0-0.9,0-1.3-0.1c-0.4-0.1-0.7-0.1-1-0.2L27.9,5.4c0.5-0.1,1-0.1,1.4-0.2
		c0.5,0,0.9-0.1,1.2-0.1c0.3,0,0.7,0,1,0c0.4,0,0.8,0.1,1.2,0.2l2.2,11.9c0.4-1.9,0.9-3.9,1.3-6c0.4-2.1,0.9-4,1.3-5.9
		c0.3-0.1,0.7-0.1,1-0.1c0.4,0,0.8-0.1,1.2-0.1c0.3,0,0.7,0,1.1,0.1c0.4,0,0.7,0.1,0.9,0.1l2.7,12L46.6,5.4z"/>
	<path fill="#162249" d="M52.1,20.1c0.2,0,0.4,0.1,0.7,0.1c0.3,0.1,0.6,0.1,1,0.1c0.2,0,0.4,0,0.7,0s0.5-0.1,0.7-0.2
		c0.2-0.1,0.4-0.3,0.5-0.6c0.1-0.3,0.2-0.6,0.2-1.1v-9H53c-0.2-0.7-0.2-1.4-0.2-2.1c0-0.6,0.1-1.3,0.2-2h7.4v13.5
		c0,1-0.2,1.8-0.5,2.5c-0.3,0.7-0.7,1.3-1.3,1.7c-0.5,0.4-1.2,0.8-1.9,1c-0.7,0.2-1.5,0.3-2.3,0.3c-0.5,0-1,0-1.5-0.1
		c-0.5-0.1-1-0.2-1.4-0.3c0-0.1,0-0.3,0-0.4c0-0.1,0-0.3,0-0.4C51.6,22.1,51.7,21.1,52.1,20.1z"/>
	<path fill="#162249" d="M64,5.4c0.4-0.1,0.8-0.1,1.2-0.1c0.4,0,0.8-0.1,1.2-0.1c0.3,0,0.7,0,1.1,0.1c0.4,0,0.8,0.1,1.1,0.1l3.7,9.7
		l3.8-9.7c0.3-0.1,0.7-0.1,1.1-0.1c0.4,0,0.7-0.1,1.1-0.1c0.4,0,0.7,0,1.1,0.1c0.4,0,0.8,0.1,1.1,0.1L81.4,24
		c-0.3,0.1-0.6,0.1-0.9,0.2c-0.3,0.1-0.8,0.1-1.3,0.1c-0.6,0-1.3-0.1-2.2-0.2l-0.4-10.8l-2.9,7.1c-0.3,0.1-0.6,0.1-0.9,0.1
		c-0.3,0-0.6,0.1-0.9,0.1c-0.3,0-0.5,0-0.8,0c-0.3,0-0.6-0.1-0.9-0.1l-2.6-7L67.4,24c-0.7,0.2-1.4,0.2-2.1,0.2
		c-0.6,0-1.3-0.1-2.1-0.2L64,5.4z"/>
	<path fill="#162249" d="M84.3,5.4c0.5-0.1,0.9-0.1,1.3-0.2c0.4,0,0.7-0.1,1-0.1c0.3,0,0.7,0,1.1,0.1c0.4,0,0.8,0.1,1.3,0.2v14.6h6
		c0.1,0.4,0.1,0.8,0.2,1.1c0,0.3,0,0.6,0,0.9c0,0.3,0,0.6,0,0.9c0,0.3-0.1,0.7-0.2,1.2H84.3V5.4z"/>
	<path fill="#FFFFFF" d="M32.8,28.3c0.1,0,0.3,0,0.4-0.1s0.2,0,0.4,0c0.1,0,0.2,0,0.4,0c0.1,0,0.2,0,0.3,0l2.4,3.5v-3.5
		c0.2,0,0.3,0,0.5-0.1c0.1,0,0.3,0,0.4,0c0.1,0,0.2,0,0.4,0c0.1,0,0.3,0,0.4,0.1l0,6.4c-0.1,0-0.2,0-0.3,0.1c-0.1,0-0.3,0-0.4,0
		c-0.2,0-0.3,0-0.5,0c-0.1,0-0.2,0-0.3,0l-2.4-3.5v3.5c-0.3,0.1-0.6,0.1-0.8,0.1c-0.2,0-0.5,0-0.8-0.1V28.3z"/>
	<path fill="#FFFFFF" d="M43.3,31.3c0,0.2,0,0.4-0.1,0.7h-2v1.3h2.5c0.1,0.2,0.1,0.5,0.1,0.7c0,0.2,0,0.5-0.1,0.7h-4.3v-6.4h4.3
		c0,0.1,0,0.3,0.1,0.4c0,0.1,0,0.2,0,0.3c0,0.2,0,0.4-0.1,0.7h-2.5v1h2C43.3,30.9,43.3,31.1,43.3,31.3z"/>
	<path fill="#FFFFFF" d="M51.5,28.3c0.2,0,0.3,0,0.4-0.1c0.1,0,0.2,0,0.4,0c0.1,0,0.3,0,0.4,0c0.1,0,0.3,0,0.5,0.1l-1.7,6.4
		c-0.1,0-0.2,0-0.4,0.1c-0.2,0-0.3,0-0.5,0s-0.4,0-0.6,0c-0.2,0-0.3,0-0.4,0l-1-3.7l-1,3.7c-0.1,0-0.2,0-0.3,0c-0.2,0-0.3,0-0.5,0
		c-0.2,0-0.4,0-0.5,0s-0.3,0-0.4-0.1l-1.7-6.4c0.2,0,0.4-0.1,0.5-0.1c0.2,0,0.3,0,0.5,0c0.1,0,0.3,0,0.4,0c0.1,0,0.3,0,0.5,0.1
		l0.8,4.1c0.2-0.7,0.3-1.3,0.5-2c0.2-0.7,0.3-1.4,0.5-2c0.1,0,0.3,0,0.4,0c0.1,0,0.3,0,0.5,0c0.1,0,0.3,0,0.4,0c0.1,0,0.3,0,0.4,0
		l1.1,4.1L51.5,28.3z"/>
	<path fill="#FFFFFF" d="M56.8,30.7c0.3,0.1,0.5,0.2,0.8,0.3c0.2,0.1,0.4,0.2,0.6,0.4c0.2,0.1,0.3,0.3,0.4,0.5
		c0.1,0.2,0.1,0.5,0.1,0.7c0,0.3-0.1,0.6-0.2,0.9c-0.1,0.3-0.3,0.5-0.6,0.7c-0.2,0.2-0.5,0.3-0.9,0.4c-0.4,0.1-0.8,0.1-1.2,0.1
		c-0.4,0-0.8,0-1.1-0.1c-0.3-0.1-0.7-0.2-1-0.3c0-0.2,0.1-0.4,0.1-0.7c0.1-0.2,0.1-0.5,0.2-0.7c0.6,0.2,1.2,0.4,1.6,0.4
		c0.3,0,0.6,0,0.8-0.1c0.2-0.1,0.3-0.3,0.3-0.5c0-0.1,0-0.2-0.1-0.2c0-0.1-0.1-0.1-0.2-0.2c-0.1,0-0.1-0.1-0.2-0.1s-0.2-0.1-0.3-0.1
		l-0.6-0.2c-0.2-0.1-0.5-0.2-0.7-0.3c-0.2-0.1-0.4-0.2-0.5-0.4c-0.1-0.1-0.3-0.3-0.3-0.5c-0.1-0.2-0.1-0.4-0.1-0.7
		c0-0.3,0.1-0.6,0.2-0.8c0.1-0.2,0.3-0.5,0.5-0.6c0.2-0.2,0.5-0.3,0.8-0.4c0.3-0.1,0.7-0.1,1-0.1c0.3,0,0.7,0,1,0.1s0.7,0.1,1,0.3
		c0,0.2-0.1,0.4-0.1,0.6c-0.1,0.2-0.2,0.4-0.3,0.6c-0.2-0.1-0.4-0.1-0.6-0.2c-0.2-0.1-0.5-0.1-0.9-0.1c-0.1,0-0.2,0-0.3,0
		c-0.1,0-0.2,0-0.3,0.1c-0.1,0-0.1,0.1-0.2,0.2c0,0.1-0.1,0.2-0.1,0.3c0,0.2,0.1,0.3,0.2,0.4c0.1,0.1,0.3,0.2,0.5,0.2L56.8,30.7z"/>
	<path fill="#FFFFFF" d="M61.9,28.3c0.3,0,0.6-0.1,0.9-0.1c0.3,0,0.6,0,0.9,0c0.4,0,0.7,0,1.1,0.1c0.4,0.1,0.7,0.2,1,0.3
		c0.3,0.2,0.5,0.4,0.7,0.6c0.2,0.3,0.3,0.6,0.3,1c0,0.2,0,0.4-0.1,0.6c-0.1,0.2-0.1,0.3-0.2,0.5c-0.1,0.1-0.2,0.3-0.3,0.4
		c-0.1,0.1-0.2,0.2-0.3,0.3l1.6,2.7c-0.2,0-0.3,0-0.5,0.1s-0.4,0-0.5,0c-0.1,0-0.3,0-0.5,0s-0.3,0-0.5-0.1L64,31.7l0.1,0
		c0.1,0,0.2-0.1,0.3-0.2c0.1-0.1,0.2-0.2,0.3-0.3c0.1-0.1,0.2-0.2,0.2-0.4c0.1-0.1,0.1-0.3,0.1-0.4c0-0.3-0.1-0.5-0.3-0.7
		c-0.2-0.1-0.4-0.2-0.7-0.2c-0.1,0-0.1,0-0.2,0c0,0-0.1,0-0.1,0v5.1c-0.4,0.1-0.7,0.1-0.9,0.1c-0.3,0-0.6,0-0.9-0.1V28.3z"/>
	<path fill="#FFFFFF" d="M69.3,34.6c-0.2,0-0.3,0-0.4,0.1c-0.1,0-0.3,0-0.4,0c-0.1,0-0.3,0-0.4,0c-0.2,0-0.3,0-0.5-0.1l2.3-6.4
		c0.2,0,0.3,0,0.5,0s0.3,0,0.5,0c0.1,0,0.3,0,0.4,0s0.3,0,0.5,0l2.2,6.4c-0.4,0.1-0.7,0.1-1,0.1c-0.1,0-0.3,0-0.4,0
		c-0.1,0-0.3,0-0.4-0.1l-0.4-1.2c-0.2,0-0.4,0.1-0.5,0.1s-0.3,0-0.5,0c-0.2,0-0.3,0-0.5,0c-0.2,0-0.3-0.1-0.5-0.1L69.3,34.6z
		 M70.7,29.9L70,32.2c0.1,0,0.2,0.1,0.3,0.1c0.1,0,0.2,0,0.3,0c0.1,0,0.2,0,0.3,0c0.1,0,0.2,0,0.3-0.1L70.7,29.9z"/>
	<path fill="#FFFFFF" d="M76.6,28.1c1.3,0,2.2,0.3,2.9,0.8c0.7,0.6,1,1.4,1,2.5c0,1.1-0.3,2-1,2.5c-0.7,0.5-1.7,0.8-3,0.8
		c-0.3,0-0.7,0-1,0c-0.3,0-0.6-0.1-0.9-0.1v-6.4c0.1,0,0.2,0,0.4,0c0.2,0,0.3,0,0.5,0c0.2,0,0.4,0,0.6,0
		C76.2,28.1,76.4,28.1,76.6,28.1z M76.4,33.4c0,0,0.1,0,0.2,0c0.1,0,0.1,0,0.2,0c0.3,0,0.5,0,0.7-0.1c0.2-0.1,0.4-0.2,0.6-0.3
		c0.2-0.1,0.3-0.3,0.4-0.6c0.1-0.2,0.1-0.6,0.1-0.9c0-0.4-0.1-0.7-0.2-0.9c-0.1-0.2-0.2-0.4-0.4-0.6c-0.2-0.1-0.4-0.2-0.6-0.3
		c-0.2-0.1-0.5-0.1-0.7-0.1c-0.1,0-0.2,0-0.3,0c-0.1,0-0.1,0-0.1,0V33.4z"/>
	<path fill="#FFFFFF" d="M82.4,34.7c-0.3,0-0.6,0-0.9-0.1v-6.4c0.2,0,0.3,0,0.5-0.1s0.3,0,0.4,0c0.1,0,0.3,0,0.4,0s0.3,0,0.5,0.1
		v6.4C83,34.7,82.7,34.7,82.4,34.7z"/>
	<path fill="#FFFFFF" d="M84.4,31.5c0-0.5,0.1-0.9,0.2-1.3c0.1-0.4,0.3-0.8,0.6-1.1c0.3-0.3,0.6-0.5,1-0.7c0.4-0.2,0.9-0.3,1.4-0.3
		c0.6,0,1,0.1,1.4,0.3c0.4,0.2,0.7,0.4,1,0.7c0.3,0.3,0.5,0.6,0.6,1.1c0.1,0.4,0.2,0.8,0.2,1.3s-0.1,0.9-0.2,1.3s-0.3,0.7-0.6,1
		c-0.3,0.3-0.6,0.5-1,0.7c-0.4,0.2-0.9,0.2-1.4,0.2c-0.6,0-1-0.1-1.4-0.2c-0.4-0.2-0.7-0.4-1-0.7c-0.3-0.3-0.5-0.6-0.6-1
		S84.4,32,84.4,31.5z M88.8,31.5c0-1.3-0.4-1.9-1.3-1.9c-0.9,0-1.3,0.6-1.3,1.9c0,0.6,0.1,1.1,0.3,1.4c0.2,0.3,0.5,0.5,1,0.5
		C88.4,33.4,88.8,32.8,88.8,31.5z"/>
</g>
<g>
	<path fill="#EE2938" d="M29.5,38.6h0.8v2.9h-0.5v-2.4h-0.6L29.5,38.6z"/>
	<path fill="#EE2938" d="M31.8,39.5h-0.5c0-0.3,0.1-0.6,0.3-0.7c0.2-0.2,0.4-0.3,0.7-0.3c0.2,0,0.3,0,0.5,0.1
		c0.1,0.1,0.2,0.2,0.3,0.3c0.1,0.1,0.1,0.3,0.1,0.4c0,0.2,0,0.4-0.1,0.6c-0.1,0.2-0.3,0.4-0.5,0.7L32.2,41h1v0.5h-2v-0.3l0.9-0.9
		c0.2-0.2,0.4-0.4,0.4-0.5c0.1-0.1,0.1-0.3,0.1-0.4c0-0.1,0-0.2-0.1-0.3c-0.1-0.1-0.2-0.1-0.3-0.1c-0.1,0-0.2,0-0.3,0.1
		C31.9,39.2,31.8,39.4,31.8,39.5z"/>
	<path fill="#EE2938" d="M34.1,38.6h0.8v2.9h-0.5v-2.4h-0.6L34.1,38.6z"/>
	<path fill="#EE2938" d="M36.8,38.5c0.2,0,0.4,0.1,0.5,0.2c0.2,0.1,0.3,0.3,0.4,0.5c0.1,0.2,0.1,0.5,0.1,0.9c0,0.4,0,0.7-0.1,0.9
		c-0.1,0.2-0.2,0.4-0.3,0.5c-0.1,0.1-0.3,0.2-0.5,0.2c-0.2,0-0.4-0.1-0.6-0.2c-0.1-0.1-0.3-0.3-0.3-0.5c-0.1-0.2-0.1-0.5-0.1-0.9
		c0-0.5,0.1-0.9,0.2-1.2C36.2,38.6,36.5,38.5,36.8,38.5z M36.8,39c-0.1,0-0.2,0-0.2,0.1c-0.1,0.1-0.1,0.2-0.2,0.3
		c0,0.1-0.1,0.4-0.1,0.6c0,0.4,0,0.6,0.1,0.8c0.1,0.1,0.2,0.2,0.3,0.2c0.1,0,0.2-0.1,0.3-0.2c0.1-0.2,0.1-0.4,0.1-0.8
		c0-0.4,0-0.6-0.1-0.8C37.1,39.1,37,39,36.8,39z"/>
	<path fill="#EE2938" d="M40.3,38.6h0.6l1.1,2.9h-0.6l-0.2-0.6H40l-0.2,0.6h-0.6L40.3,38.6z M40.6,39.4l-0.4,1H41L40.6,39.4z"/>
	<path fill="#EE2938" d="M42.7,38.6h0.5l0.7,2l0.7-2h0.5l0.5,2.9h-0.5l-0.3-1.8l-0.6,1.8h-0.5l-0.6-1.8l-0.3,1.8h-0.5L42.7,38.6z"/>
	<path fill="#EE2938" d="M49.8,40.9c-0.4,0-0.6-0.3-0.6-0.6c0-0.4,0.3-0.6,0.6-0.6s0.6,0.3,0.6,0.6C50.4,40.6,50.1,40.9,49.8,40.9z"
		/>
	<path fill="#EE2938" d="M53.7,38.6h0.8v2.9h-0.5v-2.4h-0.6L53.7,38.6z"/>
	<path fill="#EE2938" d="M56.4,38.5c0.2,0,0.4,0.1,0.5,0.2c0.2,0.1,0.3,0.3,0.4,0.5c0.1,0.2,0.1,0.5,0.1,0.9c0,0.4,0,0.7-0.1,0.9
		c-0.1,0.2-0.2,0.4-0.3,0.5c-0.1,0.1-0.3,0.2-0.5,0.2c-0.2,0-0.4-0.1-0.6-0.2c-0.1-0.1-0.3-0.3-0.3-0.5c-0.1-0.2-0.1-0.5-0.1-0.9
		c0-0.5,0.1-0.9,0.2-1.2C55.8,38.6,56.1,38.5,56.4,38.5z M56.4,39c-0.1,0-0.2,0-0.2,0.1c-0.1,0.1-0.1,0.2-0.2,0.3
		c0,0.1-0.1,0.4-0.1,0.6c0,0.4,0,0.6,0.1,0.8c0.1,0.1,0.2,0.2,0.3,0.2c0.1,0,0.2-0.1,0.3-0.2c0.1-0.2,0.1-0.4,0.1-0.8
		c0-0.4,0-0.6-0.1-0.8C56.6,39.1,56.5,39,56.4,39z"/>
	<path fill="#EE2938" d="M58.2,38.6H59v2.9h-0.5v-2.4h-0.6L58.2,38.6z"/>
	<path fill="#EE2938" d="M60.4,40.9c0.1,0,0.2,0,0.2,0.1c0.1,0.1,0.1,0.1,0.1,0.2c0,0.1,0,0.2-0.1,0.2c-0.1,0.1-0.1,0.1-0.2,0.1
		c-0.1,0-0.2,0-0.2-0.1c-0.1-0.1-0.1-0.1-0.1-0.2c0-0.1,0-0.2,0.1-0.2C60.2,41,60.3,40.9,60.4,40.9z"/>
	<path fill="#EE2938" d="M61.6,38.6h0.8v2.9h-0.5v-2.4h-0.6L61.6,38.6z"/>
	<path fill="#EE2938" d="M64.7,38.6h1.4v0.5h-0.9v0.5h0.9v0.5h-0.9v1.3h-0.5V38.6z"/>
	<path fill="#EE2938" d="M67,38.6h0.5l0.7,2l0.7-2h0.5l0.5,2.9h-0.5L69,39.7l-0.6,1.8h-0.5l-0.6-1.8L67,41.5h-0.5L67,38.6z"/>
	<path fill="#EE2938" d="M74.4,40.9c-0.4,0-0.6-0.3-0.6-0.6c0-0.4,0.3-0.6,0.6-0.6c0.4,0,0.6,0.3,0.6,0.6
		C75,40.6,74.7,40.9,74.4,40.9z"/>
	<path fill="#EE2938" d="M78.3,38.6h0.8v2.9h-0.5v-2.4h-0.6L78.3,38.6z"/>
	<path fill="#EE2938" d="M80.5,38.6h0.8v2.9h-0.5v-2.4h-0.6L80.5,38.6z"/>
	<path fill="#EE2938" d="M82.8,38.6h0.8v2.9h-0.5v-2.4h-0.6L82.8,38.6z"/>
	<path fill="#EE2938" d="M85.6,38.5c0.2,0,0.4,0.1,0.5,0.2c0.2,0.1,0.3,0.3,0.4,0.5c0.1,0.2,0.1,0.5,0.1,0.9c0,0.4,0,0.7-0.1,0.9
		c-0.1,0.2-0.2,0.4-0.3,0.5s-0.3,0.2-0.5,0.2c-0.2,0-0.4-0.1-0.6-0.2c-0.1-0.1-0.3-0.3-0.3-0.5c-0.1-0.2-0.1-0.5-0.1-0.9
		c0-0.5,0.1-0.9,0.2-1.2C85,38.6,85.2,38.5,85.6,38.5z M85.6,39c-0.1,0-0.2,0-0.2,0.1c-0.1,0.1-0.1,0.2-0.2,0.3
		c0,0.1-0.1,0.4-0.1,0.6c0,0.4,0,0.6,0.1,0.8c0.1,0.1,0.2,0.2,0.3,0.2c0.1,0,0.2-0.1,0.3-0.2C86,40.7,86,40.4,86,40
		c0-0.4,0-0.6-0.1-0.8C85.8,39.1,85.7,39,85.6,39z"/>
	<path fill="#EE2938" d="M89.1,38.6h0.6l1.1,2.9h-0.6L90,40.9h-1.2l-0.2,0.6H88L89.1,38.6z M89.4,39.4l-0.4,1h0.8L89.4,39.4z"/>
	<path fill="#EE2938" d="M91.5,38.6H92l0.7,2l0.7-2h0.5l0.5,2.9h-0.5l-0.3-1.8l-0.6,1.8h-0.5l-0.6-1.8l-0.3,1.8H91L91.5,38.6z"/>
</g>
</svg>
